<?xml version="1.0" encoding="UTF-8" standalone="no"?>
<!-- Created with Inkscape (http://www.inkscape.org/) -->

<svg
   xmlns:dc="http://purl.org/dc/elements/1.1/"
   xmlns:cc="http://creativecommons.org/ns#"
   xmlns:rdf="http://www.w3.org/1999/02/22-rdf-syntax-ns#"
   xmlns:svg="http://www.w3.org/2000/svg"
   xmlns="http://www.w3.org/2000/svg"
   xmlns:sodipodi="http://sodipodi.sourceforge.net/DTD/sodipodi-0.dtd"
   xmlns:inkscape="http://www.inkscape.org/namespaces/inkscape"
   width="210mm"
   height="297mm"
   viewBox="0 0 210 297"
   version="1.1"
   id="svg8"
   inkscape:version="0.92.3 (2405546, 2018-03-11)"
   sodipodi:docname="wq-logo2.svg"
   inkscape:export-filename="C:\Users\Ebenezeri\Pictures\wq-logo.png"
   inkscape:export-xdpi="96"
   inkscape:export-ydpi="96">
  <defs
     id="defs2" />
  <g
     inkscape:label="Layer 1"
     inkscape:groupmode="layer"
     id="layer1">
    <path
       style="fill:none;stroke:#eeeee4;stroke-width:2px;stroke-linecap:butt;stroke-linejoin:miter;stroke-opacity:1"
       d="M 17.53125,75.281249 37.640625,150.5625 26.296875,141.28125 63.937498,82.499998 51.562499,84.046874 76.3125,143.34375 66.515625,143.85937 79.921874,62.90625 v 0"
       id="path831"
       inkscape:connector-curvature="0" />
    <path
       style="fill:none;stroke:#eeeee4;stroke-width:2px;stroke-linecap:butt;stroke-linejoin:miter;stroke-opacity:1"
       d="m 112.92187,79.921874 c -8.25,-1.03125 -24.234371,1.031251 -24.234371,1.031251 l -11.343751,26.812495 6.703126,21.14063 18.562496,13.92187 16.5,-11.34375 6.70313,-20.625 2.0625,-14.437497 z"
       id="path833"
       inkscape:connector-curvature="0" />
    <path
       style="fill:none;stroke:#eeeee4;stroke-width:2px;stroke-linecap:butt;stroke-linejoin:miter;stroke-opacity:1"
       d="m 119.10937,131.48437 5.15625,53.10938 16.5,-39.70313 -0.51562,2.0625"
       id="path835"
       inkscape:connector-curvature="0" />
    <path
       style="fill:none;stroke:#eeeee4;stroke-width:2px;stroke-linecap:butt;stroke-linejoin:miter;stroke-opacity:1"
       d="m 130.45312,70.640624 19.59375,-0.515625 h 1.03125"
       id="path837"
       inkscape:connector-curvature="0" />
    <path
       style="fill:none;stroke:#eeeee4;stroke-width:2px;stroke-linecap:butt;stroke-linejoin:miter;stroke-opacity:1"
       d="m 150.04687,59.296873 4.125,-3.609374 9.79688,1.546876 4.125,17.015624 -11.34375,8.765624 -5.15625,5.671876 12.89062,-1.031251 11.85938,1.546876 v -1.546876"
       id="path839"
       inkscape:connector-curvature="0" />
    <path
       style="fill:none;stroke:#eeeee4;stroke-width:2px;stroke-linecap:butt;stroke-linejoin:miter;stroke-opacity:1"
       d="m 144.89062,161.90625 15.98438,-0.51563 c 0,0 9.28125,10.82813 4.64062,11.85938 -4.64062,1.03125 -19.59375,4.125 -19.59375,4.125 l -6.1875,11.34375 11.34375,4.64062 18.04688,-2.0625 6.1875,-2.0625"
       id="path841"
       inkscape:connector-curvature="0" />
  </g>
</svg>
